<svg viewBox="0 0 814.36 241.85">
  <defs>
    <style>
      .cls-1{fill:url(#Unbenannter_Verlauf);}.cls-2{fill:#58595b;}.cls-3{font-size:30px;font-family:DodecaBasic-Regular, DodecaBasic;letter-spacing:0.27em;}
    </style>
    <linearGradient id="Unbenannter_Verlauf" x1="428.59" y1="616.51" x2="638.04" y2="616.51" gradientTransform="matrix(1, 0, 0, -1, 0, 1198)" gradientUnits="userSpaceOnUse"><stop offset="0" stop-color="#3c9cd7"/>
      <stop offset="0.27" stop-color="#6569b0"/>
      <stop offset="0.65" stop-color="#865b99"/>
      <stop offset="1" stop-color="#da1c5c"/>
    </linearGradient>
  </defs>
  <title>incoqnito</title>
  <path class="cls-1" d="M627.66,515l-60.39-34.87-10.38-6-23.58-13.61-23.57,13.61-10.38,6L439,515l-10.38,6V642L439,648l60.39,34.87,10.38,6,23.57,13.61,23.58-13.61,10.38-6L627.66,648,638,642V521Zm0,120.94-60.39,34.87-10.38,6L537,688.31l-3.69,2.12-3.69-2.12-19.89-11.48-10.38-6L439,636V567.53l60.39-34.86V642.3l10.38,6,23.57,13.61,23.58-13.61,10.38-6,60.39-34.87V636Zm-70.78.34L537,647.79l-3.69,2.12-3.7-2.12-19.88-11.48V526.67l19.88-11.48,3.7-2.12,3.69,2.12,19.87,11.48Zm70.78-40.86-60.39,34.87V520.68l-10.38-6-23.58-13.61-23.57,13.61-10.38,6L439,555.55V527l60.39-34.86,10.38-6,19.89-11.48,3.69-2.12,3.69,2.12,19.88,11.47,10.38,6L627.66,527v68.43Z" transform="translate(-428.59 -460.57)"/>
  <path class="cls-2" d="M727.24,551h9v61.75h-9Z" transform="translate(-428.59 -460.57)"/>
  <path class="cls-2" d="M765.27,612.73h-8.46V550.16l39.7,47.49L796.6,551h8.46l0,61.76h-8.32L765.27,574Z" transform="translate(-428.59 -460.57)"/>
  <path class="cls-2" d="M850.06,604.21a19.52,19.52,0,0,0,9.85-2.57,21.53,21.53,0,0,0,7.34-6.86l7.3,5.47a30.9,30.9,0,0,1-10.53,9.1,30.28,30.28,0,0,1-25.79.93,30.83,30.83,0,0,1-16.15-16.39,31.35,31.35,0,0,1,0-24,31.15,31.15,0,0,1,6.5-9.77,30.83,30.83,0,0,1,9.65-6.62,30.28,30.28,0,0,1,25.79.93,30.9,30.9,0,0,1,10.53,9.1l-7.3,5.47a21.66,21.66,0,0,0-7.34-6.87,19.51,19.51,0,0,0-9.85-2.56,19.19,19.19,0,0,0-8.18,1.77,21.4,21.4,0,0,0-6.67,4.8,23.27,23.27,0,0,0-4.53,7.07,23.26,23.26,0,0,0,0,17.36,23.32,23.32,0,0,0,4.53,7.08,21.4,21.4,0,0,0,6.67,4.8A19.19,19.19,0,0,0,850.06,604.21Z" transform="translate(-428.59 -460.57)"/>
  <path class="cls-2" d="M1042.81,612.73h-8.47V549.94l39.76,47.66V551h8.63v61.76h-8.37l-31.54-38.92Z" transform="translate(-428.59 -460.57)"/>
  <path class="cls-2" d="M1104.23,551h9v61.7h-9Z" transform="translate(-428.59 -460.57)"/>
  <path class="cls-2" d="M1132.87,551h39.19v8.69H1156.9v53.05H1148V559.66h-15.16Z" transform="translate(-428.59 -460.57)"/>
  <path class="cls-2" d="M1212.29,550.91a29.8,29.8,0,0,1,12,2.43A30.89,30.89,0,0,1,1243,581.9a30.33,30.33,0,0,1-2.39,12,31.09,31.09,0,0,1-6.53,9.8,30.62,30.62,0,0,1-9.76,6.61,29.8,29.8,0,0,1-12,2.43,29.49,29.49,0,0,1-11.93-2.43,30.68,30.68,0,0,1-16.25-16.41,30.33,30.33,0,0,1-2.39-12,30.76,30.76,0,0,1,18.64-28.56A29.49,29.49,0,0,1,1212.29,550.91Zm0,53.18a19.88,19.88,0,0,0,8.26-1.75,21.78,21.78,0,0,0,6.78-4.75,22.69,22.69,0,0,0,6.24-15.69,23.09,23.09,0,0,0-6.24-15.82,21.44,21.44,0,0,0-6.78-4.8,20,20,0,0,0-8.26-1.75,19.67,19.67,0,0,0-8.2,1.75,21.54,21.54,0,0,0-6.75,4.8,23,23,0,0,0-4.56,7.14,22.63,22.63,0,0,0-1.68,8.68,22.24,22.24,0,0,0,1.68,8.63,22.69,22.69,0,0,0,4.56,7.06,21.88,21.88,0,0,0,6.75,4.75A19.51,19.51,0,0,0,1212.29,604.09Z" transform="translate(-428.59 -460.57)"/>
  <path class="cls-2" d="M945,577.89a27.53,27.53,0,0,0-.69-3.53,28.8,28.8,0,0,0-1.41-4.17,31.4,31.4,0,0,0-2.26-4.35,29.28,29.28,0,0,0-4.3-5.48,31.3,31.3,0,0,0-9.8-6.61,30.24,30.24,0,0,0-12-2.42,29.91,29.91,0,0,0-12,2.42,31.47,31.47,0,0,0-9.76,6.61,30.91,30.91,0,0,0-6.56,9.83,30.54,30.54,0,0,0-2.4,12.08,30,30,0,0,0,2.4,12,31.12,31.12,0,0,0,6.56,9.79,31.47,31.47,0,0,0,9.76,6.61,29.91,29.91,0,0,0,12,2.42,30.24,30.24,0,0,0,12-2.42,31.3,31.3,0,0,0,9.8-6.61,31.67,31.67,0,0,0,6.56-9.79,28.33,28.33,0,0,0,1.38-4,29.56,29.56,0,0,0,.74-3.77,30.25,30.25,0,0,0,.28-4.18A31.38,31.38,0,0,0,945,577.89Zm-10.81,13a22.52,22.52,0,0,1-4.58,7.05,21.81,21.81,0,0,1-6.82,4.74,20,20,0,0,1-8.28,1.75,19.74,19.74,0,0,1-8.25-1.75,21.94,21.94,0,0,1-6.77-4.74,22.35,22.35,0,0,1-4.58-7.05,22,22,0,0,1-1.69-8.62,22.35,22.35,0,0,1,1.69-8.66,22.72,22.72,0,0,1,4.58-7.13,21.92,21.92,0,0,1,6.77-4.79,19.89,19.89,0,0,1,8.25-1.75,20.13,20.13,0,0,1,8.28,1.75,21.79,21.79,0,0,1,6.82,4.79,22.9,22.9,0,0,1,4.58,7.13,22.54,22.54,0,0,1,1.69,8.66A22,22,0,0,1,934.21,590.89Z" transform="translate(-428.59 -460.57)"/>
  <path class="cls-2" d="M919.42,577.41a7.19,7.19,0,0,0-2.24-1.49,6.9,6.9,0,0,0-2.64-.49,6.47,6.47,0,0,0-2.59.5,7.06,7.06,0,0,0-2.23,1.48,6.86,6.86,0,0,0-1.47,2.19,6.46,6.46,0,0,0-.52,2.67,6.32,6.32,0,0,0,.5,2.56,7,7,0,0,0,1.49,2.22,6.66,6.66,0,0,0,2.21,1.46,6.26,6.26,0,0,0,2.6.52h.22a5.78,5.78,0,0,0,2.4-.47,7.35,7.35,0,0,0,2.24-1.51,7.59,7.59,0,0,0,1.54-2.31,6.11,6.11,0,0,0,.48-2.47,6.54,6.54,0,0,0-.5-2.64A6.93,6.93,0,0,0,919.42,577.41Z" transform="translate(-428.59 -460.57)"/>
  <path class="cls-2" d="M1218.66,584.33a6,6,0,0,0,.48-2.48,6.58,6.58,0,0,0-.5-2.64,6.75,6.75,0,0,0-1.48-2.22,7,7,0,0,0-2.23-1.49,6.67,6.67,0,0,0-2.63-.5,6.21,6.21,0,0,0-2.57.51,6.82,6.82,0,0,0-3.69,3.67,6.62,6.62,0,0,0-.51,2.67,6.37,6.37,0,0,0,.49,2.57,7,7,0,0,0,1.49,2.22,6.86,6.86,0,0,0,2.19,1.47,6.45,6.45,0,0,0,2.6.51h.22a5.68,5.68,0,0,0,2.38-.47,7.13,7.13,0,0,0,2.23-1.51A7.22,7.22,0,0,0,1218.66,584.33Z" transform="translate(-428.59 -460.57)"/>
  <path class="cls-2" d="M1015.27,593.84a30.12,30.12,0,0,0,2.4-12,30.64,30.64,0,0,0-2.4-12.1,30.66,30.66,0,0,0-16.41-16.46,30.23,30.23,0,0,0-12.07-2.43,29.92,29.92,0,0,0-12,2.43,30.77,30.77,0,0,0-16.37,16.46,30.64,30.64,0,0,0-2.4,12.1,30.16,30.16,0,0,0,2.4,12,30.87,30.87,0,0,0,16.37,16.42,29.92,29.92,0,0,0,12,2.43,30.67,30.67,0,0,0,9.28-1.4l-6-7.49a21,21,0,0,1-3.29.26,20,20,0,0,1-8.27-1.75,22.36,22.36,0,0,1-13.07-20.45,22.45,22.45,0,0,1,1.69-8.68,22.74,22.74,0,0,1,4.59-7.13,21.71,21.71,0,0,1,6.79-4.8,19.86,19.86,0,0,1,8.27-1.75,20.08,20.08,0,0,1,8.31,1.75,21.43,21.43,0,0,1,6.83,4.8,22.9,22.9,0,0,1,6.29,15.81,22.15,22.15,0,0,1-1.69,8.64,22.45,22.45,0,0,1-2.77,4.86l-13.2-16.49a4.32,4.32,0,0,0-1.39-1.18,4.94,4.94,0,0,0-1.78-.57,4.79,4.79,0,0,0-1.84.15,4.46,4.46,0,0,0-1.68.88,4.3,4.3,0,0,0-1.19,1.38,4.8,4.8,0,0,0-.58,1.76,4.55,4.55,0,0,0,.16,1.83,4.42,4.42,0,0,0,.84,1.64l.1.12h0l22.25,27.81h12.16l-8-10A31.27,31.27,0,0,0,1015.27,593.84Z" transform="translate(-428.59 -460.57)"/>
  <text class="cls-3" transform="translate(294.72 194.31)">Digitalize your Business</text>
</svg>
